Coordinates
version=1
nRows=12
nColumns=34
inDegrees=yes

Units are S.I. units (second, meters, Newtons, ...)
If the header above contains a line with 'inDegrees', this indicates whether rotational values are in degrees (yes) or radians (no).

endheader
time	pelvis_tilt	pelvis_list	pelvis_rotation	pelvis_tx	pelvis_ty	pelvis_tz	hip_flexion_r	hip_adduction_r	hip_rotation_r	knee_angle_r	ankle_angle_r	subtalar_angle_r	mtp_angle_r	hip_flexion_l	hip_adduction_l	hip_rotation_l	knee_angle_l	ankle_angle_l	subtalar_angle_l	mtp_angle_l	lumbar_extension	lumbar_bending	lumbar_rotation	arm_flex_r	arm_add_r	arm_rot_r	elbow_flex_r	pro_sup_r	arm_flex_l	arm_add_l	arm_rot_l	elbow_flex_l	pro_sup_l
      6.00000000	      4.07511298	    -11.26063695	     15.69657303	     -2.11349109	      0.99084842	     -0.17031507	     18.03745143	      9.16190242	      8.20930761	     37.23282792	     23.42090714	     -9.28648917	      0.00000000	      1.02356506	    -12.50200832	      2.61580910	     66.02357424	     19.26197294	     -1.04503532	      0.00000000	     -9.99497028	     -4.76834056	      8.37355799	   -516.87784806	   -164.02536626	   -159.61547956	     32.73206893	     99.39634019	   -346.92819135	    -44.04445186	   -336.13346694	    135.14208719	    103.84490455
      6.01666670	      2.00606300	    -10.40175095	     14.46027469	     -2.09279655	      0.99131124	     -0.17515263	     17.24095720	      8.42007169	     10.16820556	     36.45609762	     23.25824232	     -9.54905327	      0.00000000	      7.63630113	    -11.46738613	      2.73421133	     69.85872752	     28.22038155	      0.13159188	      0.00000000	     -8.93097179	     -5.61728710	      8.78176514	   -517.08784745	   -163.59881364	   -161.60861511	     34.23231222	     99.38082968	   -346.80804104	    -43.95534005	   -338.33036127	    139.95256545	    104.70594886
      6.03333330	     -0.41505291	     -9.91035696	     13.22406432	     -2.07481573	      0.99397489	     -0.18039948	     17.49604365	      7.61514390	     11.64297459	     35.77843069	     22.35147938	     -9.69035145	      0.00000000	     15.99880012	    -10.76949548	      2.96623871	     73.85419511	     32.29559619	      0.78061414	      0.00000000	     -7.64698951	     -6.05006811	      9.26632157	   -517.49059560	   -163.50163664	   -163.71203976	     35.83019516	     99.37018212	   -346.52336845	    -43.05744386	   -340.23631398	    143.29520553	    105.37743198
      6.05000000	     -2.83086986	     -9.79054676	     12.07407285	     -2.05669329	      0.99417236	     -0.18642712	     18.38331490	      6.91192572	     12.63079808	     35.46211719	     21.72898451	     -9.39116118	      0.00000000	     24.74235597	    -10.47579050	      3.13136522	     77.31640307	     33.91342826	      0.90180318	      0.00000000	     -6.26636838	     -5.95143803	      9.77203200	   -518.24614194	   -163.53838378	   -166.10580677	     37.57194926	     99.40258246	   -346.48352730	    -41.57554206	   -341.90470697	    145.61021319	    105.99350707
      6.06666670	     -4.81634037	     -9.93406579	     10.91418935	     -2.03748651	      0.99621051	     -0.19344098	     19.13975032	      6.41403973	     13.21777709	     35.27395215	     21.09472643	     -8.95183976	      0.00000000	     32.70886178	    -10.53681109	      3.13989076	     79.58343336	     34.51751824	      0.64031773	      0.00000000	     -5.08565807	     -5.42150364	     10.41101266	   -519.16809931	   -163.84702465	   -168.04092059	     38.90271686	     99.45186272	   -346.35352856	    -39.87860659	   -342.98206114	    147.75826438	    106.35515747
      6.08333330	     -5.62736244	     -9.98938398	      9.96309354	     -2.01733210	      0.99997277	     -0.20224721	     18.56059784	      5.79850329	     13.24958407	     34.81747320	     20.27904657	     -8.39972862	      0.00000000	     38.86616259	    -10.62151200	      2.95070752	     80.21944538	     35.13954965	     -0.19746337	      0.00000000	     -4.97477169	     -4.67515231	     10.84174450	   -520.04806518	   -164.23392581	   -168.95728619	     39.36959353	     99.44962764	   -346.48206617	    -37.54942867	   -343.06772163	    150.00035077	    106.46325520
      6.10000000	     -8.14455985	    -10.12068973	      8.83162043	     -1.99703434	      1.00240170	     -0.21068190	     19.91975138	      5.03494461	     13.38608137	     34.66280958	     19.90716391	     -7.84912856	      0.00000000	     46.61986120	    -10.49720859	      2.79867713	     79.43099026	     34.92756636	     -1.01898408	      0.00000000	     -2.18170074	     -3.95751573	     11.52451179	   -523.14671593	   -165.67292892	   -174.07254198	     41.63337309	     99.66411282	   -346.58058665	    -36.21556474	   -341.88233984	    150.00035077	    107.12730434
      6.11666670	     -9.32668091	    -10.09877207	      8.57560254	     -1.97814346	      1.00719276	     -0.21990364	     19.43006616	      4.05096698	     12.73688754	     33.46439323	     18.50774928	     -7.37006594	      0.00000000	     52.29076493	     -9.90280587	      3.17651993	     75.93669984	     32.39682240	     -3.16974878	      0.00000000	     -0.78557353	     -3.21623393	     10.89465220	   -525.14026515	   -166.90694548	   -174.86340997	     42.41812664	     99.79584939	   -346.55361435	    -35.25421096	   -340.17965055	    150.00035077	    107.24093064
      6.13333330	    -11.31706572	     -9.79349569	      8.22220211	     -1.96022199	      1.01045818	     -0.22841255	     19.83908690	      2.71166856	     11.91349141	     32.33648965	     17.36072437	     -6.38925301	      0.00000000	     57.77893289	     -9.03159084	      3.35546977	     70.26195348	     28.14073264	     -6.20029441	      0.00000000	      1.92645425	     -3.16447776	     10.57729190	   -528.05117258	   -168.76347158	   -176.85386625	     43.45176170	     99.81046801	   -345.81505819	    -35.13695450	   -337.17738782	    150.00035077	    107.28341223
      6.15000000	    -13.42095097	     -9.21555507	      8.82256659	     -1.94387892	      1.01473935	     -0.23849511	     20.18592677	      0.86699477	     10.68316982	     30.70859404	     15.47428328	     -5.71771496	      0.00000000	     61.99845895	     -7.22206583	      3.65559905	     62.03699997	     20.65973237	    -11.59505687	      0.00000000	      4.56371519	     -3.83619073	      9.29817015	   -531.01756677	   -170.90779923	   -178.65438826	     44.41330058	     99.78727680	   -344.25201223	    -35.26683550	   -334.24161075	    150.00035077	    107.14801731
      6.16666670	    -16.17651167	     -8.00365835	      9.90912981	     -1.92933314	      1.02016443	     -0.25061828	     21.07551047	     -2.09896210	      8.97236943	     28.94068827	     13.15338875	     -4.38626383	      0.00000000	     64.67847345	     -4.23565125	      3.77335543	     50.58271090	      7.12879708	    -22.55599962	      0.00000000	      7.72312002	     -5.62164220	      7.85694678	   -533.98151950	   -173.26540693	   -180.93775536	     45.16988022	     99.80062039	   -341.89322445	    -35.78432414	   -330.22121865	    150.00035077	    106.69639850
      6.18333330	    -18.04831762	     -5.36786456	     11.42298794	     -1.91520882	      1.02845764	     -0.26334849	     20.54736244	     -6.44028576	      7.62117016	     26.87456506	     11.04441805	     -3.32149395	      0.00000000	     62.75228675	     -0.82576414	      1.74397271	     34.22613285	    -12.07759685	    -35.00000000	      0.00000000	      9.21637168	     -9.20127341	      6.23966721	   -536.12471030	   -175.53787633	   -181.92732665	     44.76940317	     99.91058228	   -339.74586641	    -37.34641331	   -327.36688952	    150.00035077	    106.03021598
